<?xml version="1.0" encoding="utf-8"?>
<!-- Generator: Adobe Illustrator 27.1.1, SVG Export Plug-In . SVG Version: 6.00 Build 0)  -->
<svg version="1.1" id="Layer_1" xmlns="http://www.w3.org/2000/svg" xmlns:xlink="http://www.w3.org/1999/xlink" x="0px" y="0px"
	 viewBox="0 0 50 50" style="enable-background:new 0 0 50 50;" xml:space="preserve">
<style type="text/css">
	.st0{clip-path:url(#SVGID_00000000937563886653313250000017329654738334122376_);}
	.st1{fill:#F8ECDB;stroke:#E4E0D4;stroke-width:4;stroke-miterlimit:10;}
</style>
<g>
	<g>
		<defs>
			<polygon id="SVGID_1_" points="-41.6,94.4 -41.6,22.3 -104.1,-22.9 -166.6,22.3 -166.6,94.4 			"/>
		</defs>
		<clipPath id="SVGID_00000104676226065674189960000000223502367479087256_">
			<use xlink:href="#SVGID_1_"  style="overflow:visible;"/>
		</clipPath>
		<g style="clip-path:url(#SVGID_00000104676226065674189960000000223502367479087256_);">
			<g>
				<path class="st1" d="M-102.9,103.8"/>
			</g>
		</g>
		<g style="clip-path:url(#SVGID_00000104676226065674189960000000223502367479087256_);">
			<g>
				<path class="st1" d="M-102.9-31.1"/>
			</g>
		</g>
		<g style="clip-path:url(#SVGID_00000104676226065674189960000000223502367479087256_);">
			<g>
				<path class="st1" d="M-51.6,103.8"/>
			</g>
		</g>
		<g style="clip-path:url(#SVGID_00000104676226065674189960000000223502367479087256_);">
			<g>
				<path class="st1" d="M-51.6-31.1"/>
			</g>
		</g>
		<g style="clip-path:url(#SVGID_00000104676226065674189960000000223502367479087256_);">
			<g>
				<path class="st1" d="M-68.7,103.8"/>
			</g>
		</g>
		<g style="clip-path:url(#SVGID_00000104676226065674189960000000223502367479087256_);">
			<g>
				<path class="st1" d="M-68.7-31.1"/>
			</g>
		</g>
		<g style="clip-path:url(#SVGID_00000104676226065674189960000000223502367479087256_);">
			<g>
				<path class="st1" d="M-85.8,103.8"/>
			</g>
		</g>
		<g style="clip-path:url(#SVGID_00000104676226065674189960000000223502367479087256_);">
			<g>
				<path class="st1" d="M-85.8-31.1"/>
			</g>
		</g>
	</g>
</g>
<path d="M25.2,4.1l0.5,0.3l21.8,15.8v2.5L25,6.6L2.5,22.6v-2.5L24.3,4.4l0.4-0.3l0,0L25,3.9l0,0l0,0L25.2,4.1L25.2,4.1z M25.3,41.9
	l-0.2-0.3L25,41.7l-0.1-0.1l-0.2,0.3l-5.9,4.2h3.7l2.4-1.7l2.4,1.7h3.7L25.3,41.9z M25.3,32.5l-0.2-0.3L25,32.3l-0.1-0.1l-0.2,0.3
	L5.7,46.1h3.7L25,34.9l15.6,11.2h3.7L25.3,32.5z M25.2,13.5L25,13.3l0,0l0,0l-0.2,0.2L2.5,29.4v2.7L25,16l22.5,16.1v-2.7L25.2,13.5z
	 M25.1,22.8L25.1,22.8l-0.2,0L24.7,23L2.5,38.9v2.7L25,25.5l22.5,16.1v-2.7L25.3,23L25.1,22.8z"/>
</svg>
