<?xml version="1.0" encoding="utf-8"?>
<!-- Generator: Adobe Illustrator 26.0.3, SVG Export Plug-In . SVG Version: 6.00 Build 0)  -->
<svg version="1.1" id="Layer_1" xmlns="http://www.w3.org/2000/svg" xmlns:xlink="http://www.w3.org/1999/xlink" x="0px" y="0px"
	 viewBox="0 0 15 15" style="enable-background:new 0 0 15 15;" xml:space="preserve">
<style type="text/css">
	.st0{fill:#4BA452;}
</style>
<path class="st0" d="M13.39,0H1.61C0.72,0,0,0.72,0,1.61v11.79C0,14.28,0.72,15,1.61,15h4.6V9.9H4.09V7.5H6.2V5.67
	c0-2.08,1.24-3.23,3.14-3.23c0.91,0,1.86,0.16,1.86,0.16v2.04h-1.05c-1.03,0-1.35,0.64-1.35,1.3V7.5h2.3l-0.37,2.4H8.8V15h4.6
	c0.89,0,1.61-0.72,1.61-1.61V1.61C15,0.72,14.28,0,13.39,0z"/>
</svg>
