<?xml version="1.0" encoding="utf-8"?>
<!-- Generator: Adobe Illustrator 26.0.3, SVG Export Plug-In . SVG Version: 6.00 Build 0)  -->
<svg version="1.1" id="Layer_1" xmlns="http://www.w3.org/2000/svg" xmlns:xlink="http://www.w3.org/1999/xlink" x="0px" y="0px"
	 viewBox="0 0 15 15" style="enable-background:new 0 0 15 15;" xml:space="preserve">
<style type="text/css">
	.st0{fill:#4BA452;}
</style>
<path class="st0" d="M7.5,3.65c-2.13,0-3.84,1.72-3.84,3.85s1.72,3.85,3.84,3.85s3.84-1.72,3.84-3.85S9.63,3.65,7.5,3.65z M7.5,10
	C6.13,10,5,8.88,5,7.5S6.12,5,7.5,5S10,6.12,10,7.5S8.88,10,7.5,10L7.5,10z M12.4,3.5c0,0.5-0.4,0.9-0.9,0.9c-0.5,0-0.9-0.4-0.9-0.9
	s0.4-0.9,0.9-0.9C12,2.6,12.4,3,12.4,3.5z M14.95,4.41c-0.06-1.2-0.33-2.27-1.21-3.14c-0.88-0.88-1.94-1.15-3.14-1.21
	c-1.24-0.07-4.95-0.07-6.19,0c-1.2,0.06-2.26,0.33-3.14,1.21S0.11,3.2,0.05,4.4c-0.07,1.24-0.07,4.95,0,6.19
	c0.06,1.2,0.33,2.27,1.21,3.14s1.94,1.15,3.14,1.21c1.24,0.07,4.95,0.07,6.19,0c1.2-0.06,2.27-0.33,3.14-1.21
	c0.88-0.88,1.15-1.94,1.21-3.14C15.02,9.35,15.02,5.65,14.95,4.41L14.95,4.41z M13.35,11.92c-0.26,0.66-0.77,1.16-1.43,1.43
	c-0.99,0.39-3.33,0.3-4.42,0.3s-3.44,0.09-4.42-0.3c-0.66-0.26-1.16-0.77-1.43-1.43c-0.39-0.99-0.3-3.33-0.3-4.42
	s-0.09-3.44,0.3-4.42c0.26-0.66,0.77-1.16,1.43-1.43c0.99-0.39,3.33-0.3,4.42-0.3s3.44-0.09,4.42,0.3c0.66,0.26,1.16,0.77,1.43,1.43
	c0.39,0.99,0.3,3.33,0.3,4.42S13.74,10.94,13.35,11.92z"/>
</svg>
