<?xml version="1.0" encoding="utf-8"?>
<!-- Generator: Adobe Illustrator 26.0.3, SVG Export Plug-In . SVG Version: 6.00 Build 0)  -->
<svg version="1.1" id="Layer_1" xmlns="http://www.w3.org/2000/svg" xmlns:xlink="http://www.w3.org/1999/xlink" x="0px" y="0px"
	 viewBox="0 0 15 15" style="enable-background:new 0 0 15 15;" xml:space="preserve">
<style type="text/css">
	.st0{fill:#4BA452;}
</style>
<path class="st0" d="M13.93,0H1.07C0.48,0,0,0.49,0,1.08v12.84C0,14.51,0.48,15,1.07,15h12.86c0.59,0,1.07-0.49,1.07-1.08V1.08
	C15,0.49,14.52,0,13.93,0z M4.53,12.86H2.31V5.7h2.23L4.53,12.86L4.53,12.86z M3.42,4.72c-0.71,0-1.29-0.58-1.29-1.29
	s0.58-1.29,1.29-1.29c0.71,0,1.29,0.58,1.29,1.29C4.71,4.15,4.14,4.72,3.42,4.72z M12.87,12.86h-2.22V9.38c0-0.83-0.02-1.9-1.16-1.9
	c-1.16,0-1.34,0.9-1.34,1.84v3.54H5.93V5.7h2.13v0.98h0.03c0.3-0.56,1.02-1.16,2.11-1.16c2.25,0,2.67,1.48,2.67,3.41V12.86z"/>
</svg>
