<?xml version="1.0" encoding="utf-8"?>
<!-- Generator: Adobe Illustrator 26.0.3, SVG Export Plug-In . SVG Version: 6.00 Build 0)  -->
<svg version="1.1" id="Layer_1" xmlns="http://www.w3.org/2000/svg" xmlns:xlink="http://www.w3.org/1999/xlink" x="0px" y="0px"
	 viewBox="0 0 18.5 15" style="enable-background:new 0 0 18.5 15;" xml:space="preserve">
<style type="text/css">
	.st0{fill:#4BA452;}
</style>
<path class="st0" d="M16.59,3.74C16.6,3.9,16.6,4.07,16.6,4.23c0,5-3.81,10.77-10.77,10.77c-2.14,0-4.14-0.62-5.81-1.7
	c0.3,0.04,0.6,0.05,0.91,0.05c1.77,0,3.4-0.6,4.7-1.62c-1.66-0.04-3.06-1.13-3.54-2.63C2.32,9.14,2.56,9.16,2.8,9.16
	c0.34,0,0.68-0.05,1-0.13C2.07,8.68,0.77,7.16,0.77,5.32V5.27c0.5,0.28,1.09,0.46,1.71,0.48C1.46,5.07,0.79,3.91,0.79,2.6
	c0-0.7,0.19-1.35,0.52-1.91c1.86,2.3,4.66,3.8,7.8,3.96C9.05,4.37,9.02,4.08,9.02,3.79C9.02,1.7,10.7,0,12.8,0
	c1.09,0,2.07,0.46,2.77,1.2c0.86-0.16,1.68-0.48,2.4-0.91c-0.28,0.88-0.88,1.62-1.66,2.09c0.76-0.08,1.5-0.29,2.18-0.59
	C17.97,2.53,17.32,3.2,16.59,3.74L16.59,3.74z"/>
</svg>
